# xmcd
# Track frame offsets:
# 150
# 14404
# 26407
# 38712
# 51765
#
# Disc length: 940 seconds
# Revision: 0
# Processed by: cddbd v1.5.2PL0 Copyright (c) Steve Scherf et al.
# Submitted via: VisiTrax 2.10.2.252 - For more info visit www.synapsa.com
#
DISCID=3303aa05
DTITLE=Kapten Blues - Demo
DYEAR=2008
DGENRE=Blues
TTITLE0=My Babe is a good´um
TTITLE1=Halleluja I just love her so
TTITLE2=Barefoot´n
TTITLE3=You don´t know
TTITLE4=Letter on my bed
EXTD=
EXTT0=
EXTT1=
EXTT2=
EXTT3=
EXTT4=
PLAYORDER=
